<?xml version="1.0" encoding="UTF-8"?>
<svg version="1.1" xmlns="http://www.w3.org/2000/svg" width="75" height="75">
<path d="M0 0 C0.70253906 0.433125 1.40507813 0.86625 2.12890625 1.3125 C3.29099609 2.0240625 3.29099609 2.0240625 4.4765625 2.75 C12.2390861 8.14100137 17.77263452 16.14184619 20.12890625 25.3125 C21.44828322 38.01316917 20.43416212 48.50294172 12.94140625 59.0625 C7.17067986 66.04162636 -1.02387139 71.39924147 -10.13354492 72.61425781 C-12.51316112 72.74927859 -14.86291431 72.78049202 -17.24609375 72.75 C-18.08317871 72.74170166 -18.92026367 72.73340332 -19.78271484 72.72485352 C-26.15597881 72.55067659 -31.36477115 71.70722366 -36.87109375 68.3125 C-37.64582031 67.838125 -38.42054687 67.36375 -39.21875 66.875 C-46.9812736 61.48399863 -52.51482202 53.48315381 -54.87109375 44.3125 C-56.05005665 32.96349352 -55.94772425 22.08472509 -48.91796875 12.70703125 C-37.05640339 -1.33191936 -17.58257708 -8.80657774 0 0 Z M-32.671875 19.59375 C-35.55901714 23.73167359 -35.69558365 28.49027333 -34.87109375 33.3125 C-31.3266166 42.11258121 -25.71214949 50.69682788 -18.87109375 57.3125 C-17.88109375 57.3125 -16.89109375 57.3125 -15.87109375 57.3125 C-8.44408043 49.87133999 0.12279525 39.4166191 0.44140625 28.5 C0.37765086 23.62625469 -0.57417896 21.04321937 -3.87109375 17.3125 C-8.86590921 12.51330394 -12.76060774 10.98377371 -19.59765625 11.10546875 C-25.6859947 11.65990507 -28.96146776 15.15294764 -32.671875 19.59375 Z " fill="#F40707" transform="translate(54.87109375,2.6875)"/>
<path d="M0 0 C2.375 1.5625 2.375 1.5625 4 4 C4.7099846 8.9698922 4.79117716 10.84919686 1.9375 15 C-1.77807226 17.52975133 -3.5882483 17.7878128 -8 17 C-10.9375 14.9375 -10.9375 14.9375 -13 12 C-13.68577608 7.73294881 -13.50023114 5.79347009 -11.1875 2.125 C-7.50859763 -1.44879087 -4.76887416 -1.26521151 0 0 Z " fill="#F01110" transform="translate(42,23)"/>
</svg>
