<?xml version="1.0" encoding="UTF-8"?>
<svg version="1.1" xmlns="http://www.w3.org/2000/svg" width="75" height="75">
<path d="M0 0 C1.68029297 -0.03577148 1.68029297 -0.03577148 3.39453125 -0.07226562 C13.80688996 -0.05404096 20.99906733 3.36847248 28.84765625 10.03515625 C30.35053049 11.83217101 30.72681569 13.27662709 31.125 15.5625 C31.785 15.5625 32.445 15.5625 33.125 15.5625 C33.77334654 16.832053 34.41857815 18.10319706 35.0625 19.375 C35.60197266 20.43654297 35.60197266 20.43654297 36.15234375 21.51953125 C40.21192959 30.04629188 40.03556746 44.56858557 37.06640625 53.46875 C32.6221673 62.8149002 25.39003758 70.10101822 16.0078125 74.4921875 C10.9561591 76.17054197 5.71414096 76.14392256 0.4375 76.1875 C-1.02345093 76.20393555 -1.02345093 76.20393555 -2.51391602 76.22070312 C-9.12519316 76.09035416 -14.06651468 74.68872555 -19.875 71.5625 C-20.535 71.2325 -21.195 70.9025 -21.875 70.5625 C-21.875 69.9025 -21.875 69.2425 -21.875 68.5625 C-22.4628125 68.4696875 -23.050625 68.376875 -23.65625 68.28125 C-26.40793139 67.38986025 -27.48077009 66.23225426 -29.375 64.0625 C-29.9421875 63.4334375 -30.509375 62.804375 -31.09375 62.15625 C-36.57816765 54.17016815 -37.5310185 47.15639739 -37.4375 37.5625 C-37.46134766 36.4384375 -37.48519531 35.314375 -37.50976562 34.15625 C-37.49669538 26.69749409 -36.21246673 21.66788622 -31.875 15.5625 C-31.215 15.5625 -30.555 15.5625 -29.875 15.5625 C-29.7925 14.985 -29.71 14.4075 -29.625 13.8125 C-28.649018 10.88455399 -27.23988777 9.51005463 -24.875 7.5625 C-23.885 7.5625 -22.895 7.5625 -21.875 7.5625 C-21.545 6.5725 -21.215 5.5825 -20.875 4.5625 C-14.07708956 0.07131457 -7.99634206 -0.07767875 0 0 Z M-14.5625 22.5625 C-17.20128952 25.41233374 -17.20128952 25.41233374 -17.125 29.1875 C-14.9969853 39.53472746 -7.28154835 46.87448719 1.125 52.5625 C5.25507106 55.10408219 8.2620063 56.39024361 13.125 55.5625 C16.04290525 53.3120803 16.04290525 53.3120803 18.125 50.5625 C18.125 49.9025 18.125 49.2425 18.125 48.5625 C13.78530803 45.52368092 13.78530803 45.52368092 8.8125 44.6875 C6.93052739 45.55547671 6.93052739 45.55547671 5.125 47.5625 C2.5 47.6875 2.5 47.6875 0.125 47.5625 C0.125 46.9025 0.125 46.2425 0.125 45.5625 C-0.6175 45.170625 -1.36 44.77875 -2.125 44.375 C-5.91947467 41.87409624 -7.04958043 39.72445661 -8.875 35.5625 C-8.125 33.5 -8.125 33.5 -6.875 31.5625 C-6.38374909 26.9447414 -7.04203692 24.26714403 -9.875 20.5625 C-12.16592615 20.36349641 -12.16592615 20.36349641 -14.5625 22.5625 Z " fill="#F80402" transform="translate(36.875,-0.5625)"/>
<path d="M0 0 C0.33 0 0.66 0 1 0 C0.67485641 8.77887697 -3.30831074 15.29176414 -9.125 21.75 C-15.33546036 27.50903923 -22.70600704 31.3639897 -31.25 31.375 C-32.83547261 31.28094654 -34.42063807 31.16788493 -36 31 C-36 30.67 -36 30.34 -36 30 C-34.81857422 29.94005859 -34.81857422 29.94005859 -33.61328125 29.87890625 C-22.65232782 28.82821131 -14.47106658 24.34313219 -7.4765625 15.984375 C-3.94113991 10.90459814 -1.11270341 6.11986877 0 0 Z " fill="#EC5655" transform="translate(74,44)"/>
<path d="M0 0 C1.32 0.33 2.64 0.66 4 1 C4 1.66 4 2.32 4 3 C4.556875 3.268125 5.11375 3.53625 5.6875 3.8125 C8 5 8 5 10.375 6.5 C13.17842779 8.10195874 15.9161732 9.06768027 19 10 C19 10.66 19 11.32 19 12 C17.39402675 11.54803755 15.79027492 11.08817673 14.1875 10.625 C13.29417969 10.36976562 12.40085937 10.11453125 11.48046875 9.8515625 C9 9 9 9 6 7 C6 6.34 6 5.68 6 5 C5.38125 4.9175 4.7625 4.835 4.125 4.75 C2 4 2 4 0.75 1.9375 C0.5025 1.298125 0.255 0.65875 0 0 Z " fill="#ED2F2E" transform="translate(9,63)"/>
<path d="M0 0 C1.11375 0.1546875 1.11375 0.1546875 2.25 0.3125 C0.25 2.3125 -1.75 4.3125 -3.75 6.3125 C-3.79092937 8.64547433 -3.79241723 10.97955225 -3.75 13.3125 C-4.74 12.9825 -5.73 12.6525 -6.75 12.3125 C-7.06697773 8.27103394 -7.10752198 5.93485307 -5.0625 2.375 C-2.75 0.3125 -2.75 0.3125 0 0 Z " fill="#EC3230" transform="translate(24.75,18.6875)"/>
<path d="M0 0 C5.93929328 0.37120583 10.42486651 2.0979896 15 6 C16.23046875 8.16796875 16.23046875 8.16796875 17 10 C13.84987499 8.48793999 10.84229972 6.76448494 7.81640625 5.01953125 C5.25791238 3.5834734 2.63637509 2.28603663 0 1 C0 0.67 0 0.34 0 0 Z " fill="#ED1B19" transform="translate(48,1)"/>
<path d="M0 0 C0.33 0 0.66 0 1 0 C0.72875522 7.32360897 -1.96151268 11.9731443 -6 18 C-6.33 17.01 -6.66 16.02 -7 15 C-6.07421875 13.203125 -6.07421875 13.203125 -4.6875 11.25 C-2.21018838 7.53403257 -0.9940537 4.33768885 0 0 Z " fill="#F06A6A" transform="translate(74,44)"/>
<path d="M0 0 C0.99 0.495 0.99 0.495 2 1 C2 1.66 2 2.32 2 3 C2.66 3 3.32 3 4 3 C8.40774487 11.261959 8.40774487 11.261959 9 16 C8.34 16 7.68 16 7 16 C6.38125 14.1746875 6.38125 14.1746875 5.75 12.3125 C4.38237229 8.60878094 2.52389302 6.04607779 0 3 C0 2.01 0 1.02 0 0 Z " fill="#EE3635" transform="translate(66,12)"/>
<path d="M0 0 C2.60045875 2.3024119 3.84739183 4.49896677 5.1875 7.6875 C5.53167969 8.49574219 5.87585938 9.30398437 6.23046875 10.13671875 C6.48441406 10.75160156 6.73835937 11.36648437 7 12 C2.81226169 10.1830061 1.70522148 8.2630537 0 4 C0 2.68 0 1.36 0 0 Z " fill="#EE1918" transform="translate(1,49)"/>
<path d="M0 0 C7 8.44827586 7 8.44827586 7 12 C6.34 12 5.68 12 5 12 C5 11.01 5 10.02 5 9 C4.01 8.67 3.02 8.34 2 8 C0.04457812 5.01540871 0 3.73585209 0 0 Z " fill="#DD3130" transform="translate(21,33)"/>
<path d="M0 0 C1.875 0.6875 1.875 0.6875 4 2 C4.68753301 3.65816784 5.35561283 5.32459336 6 7 C6.99 7.33 7.98 7.66 9 8 C8.01 8.33 7.02 8.66 6 9 C3.59927045 6.11912454 1.52708963 3.43595166 0 0 Z " fill="#E01D1C" transform="translate(28,36)"/>
<path d="M0 0 C1.2065625 0.0309375 1.2065625 0.0309375 2.4375 0.0625 C-2.3125 4.9375 -2.3125 4.9375 -4.5625 6.0625 C-3.48963568 0.08511307 -3.48963568 0.08511307 0 0 Z " fill="#E7514F" transform="translate(24.5625,18.9375)"/>
</svg>
